<svg width="30" height="30" viewBox="0 0 30 30" fill="none" xmlns="http://www.w3.org/2000/svg">
<mask id="mask0_1098_1931" style="mask-type:alpha" maskUnits="userSpaceOnUse" x="0" y="0" width="30" height="30">
<rect width="30" height="30" fill="#D9D9D9"/>
</mask>
<g mask="url(#mask0_1098_1931)">
<path d="M11.2019 27.5743C10.2435 27.5743 9.39417 27.3043 8.65375 26.7643C7.91354 26.2243 7.37115 25.5088 7.02656 24.6177C6.73323 25.0471 6.3474 25.3776 5.86906 25.6093C5.39073 25.8408 4.89271 25.9565 4.375 25.9565C3.40875 25.9565 2.59427 25.622 1.93156 24.953C1.26885 24.2839 0.9375 23.4725 0.9375 22.519C0.9375 21.6873 1.21719 20.9342 1.77656 20.2596C2.33573 19.5848 3.04323 19.2194 3.89906 19.1634C3.54323 18.7627 3.26521 18.31 3.065 17.8052C2.86458 17.3004 2.76438 16.7716 2.76438 16.2187C2.76438 15.4574 2.95594 14.7423 3.33906 14.0734C3.72198 13.4042 4.25885 12.8565 4.94969 12.4302C5.02969 12.709 5.13823 13.0078 5.27531 13.3268C5.4124 13.6458 5.56344 13.9254 5.72844 14.1659C5.38865 14.4271 5.1274 14.7392 4.94469 15.1021C4.76198 15.465 4.67063 15.8476 4.67063 16.2499C4.67063 17.4808 5.14979 18.2576 6.10813 18.5805C7.06646 18.9035 8.01281 19.1563 8.94719 19.339L9.38469 20.0865C9.15552 20.7532 8.96354 21.3189 8.80875 21.7837C8.65417 22.2483 8.57687 22.6721 8.57687 23.0552C8.57687 23.7604 8.83094 24.3754 9.33906 24.9002C9.84698 25.425 10.464 25.6874 11.19 25.6874C12.0298 25.6874 12.7221 25.3433 13.2669 24.6549C13.8117 23.9666 14.2587 23.1534 14.6081 22.2152C14.9575 21.2769 15.2268 20.3201 15.4159 19.3449C15.6051 18.3697 15.7598 17.5976 15.88 17.0287L17.7162 17.5287C17.5369 18.4101 17.3198 19.427 17.065 20.5793C16.8102 21.7316 16.45 22.8265 15.9844 23.864C15.5188 24.9017 14.907 25.7795 14.1491 26.4974C13.3911 27.2153 12.4088 27.5743 11.2019 27.5743ZM12.6131 19.0359C11.7108 18.2298 10.8891 17.477 10.1478 16.7774C9.40656 16.078 8.76875 15.3954 8.23438 14.7296C7.7 14.0638 7.28771 13.3978 6.9975 12.7318C6.7075 12.066 6.5625 11.3741 6.5625 10.6562C6.5625 9.39013 6.99604 8.32367 7.86313 7.4568C8.73 6.58971 9.79646 6.15617 11.0625 6.15617C11.2179 6.15617 11.357 6.16544 11.4797 6.18399C11.6022 6.20232 11.7251 6.22346 11.8484 6.24742C11.7572 6.04721 11.6868 5.84492 11.6372 5.64055C11.5874 5.43617 11.5625 5.2194 11.5625 4.99023C11.5625 4.0369 11.8971 3.22565 12.5663 2.55648C13.2352 1.88732 14.0465 1.55273 15 1.55273C15.9535 1.55273 16.7648 1.88732 17.4338 2.55648C18.1029 3.22565 18.4375 4.0369 18.4375 4.99023C18.4375 5.2194 18.4126 5.43294 18.3628 5.63086C18.3132 5.82878 18.2428 6.02794 18.1516 6.22836C18.2749 6.2044 18.3978 6.18638 18.5203 6.1743C18.643 6.16221 18.7821 6.15617 18.9375 6.15617C20.0352 6.15617 20.9795 6.49107 21.7703 7.16086C22.5611 7.83086 23.064 8.67148 23.2787 9.68273C22.9919 9.63628 22.6702 9.61305 22.3137 9.61305C21.9571 9.61305 21.629 9.62982 21.3294 9.66336C21.1435 9.18419 20.8398 8.79242 20.4181 8.48805C19.9967 8.18346 19.5031 8.03117 18.9375 8.03117C18.1844 8.03117 17.5906 8.23867 17.1562 8.65367C16.7219 9.06888 16.1425 9.69471 15.4181 10.5312H14.5506C13.8054 9.66096 13.2156 9.0268 12.7812 8.62867C12.3469 8.23034 11.774 8.03117 11.0625 8.03117C10.3077 8.03117 9.68146 8.27992 9.18375 8.77742C8.68625 9.27513 8.4375 9.90138 8.4375 10.6562C8.4375 11.1353 8.56688 11.6321 8.82563 12.1465C9.08458 12.6611 9.45281 13.2048 9.93031 13.7777C10.4078 14.3507 10.9855 14.96 11.6634 15.6059C12.3414 16.2517 13.1033 16.9496 13.9494 17.6996L12.6131 19.0359ZM18.7428 27.5865C18.3645 27.5865 17.9915 27.54 17.6238 27.4471C17.256 27.3542 16.8999 27.2043 16.5553 26.9974C16.7284 26.7778 16.9015 26.5183 17.0744 26.2187C17.2475 25.9191 17.4037 25.6426 17.5431 25.3893C17.7483 25.503 17.9555 25.5832 18.1647 25.6296C18.3739 25.6763 18.5809 25.6996 18.7859 25.6996C19.5247 25.6996 20.1501 25.4371 20.6622 24.9121C21.1743 24.3873 21.4303 23.7619 21.4303 23.0359C21.4303 22.64 21.353 22.215 21.1984 21.7609C21.0436 21.3065 20.8517 20.746 20.6225 20.0793L21.0722 19.3318C22.0272 19.1491 22.9786 18.8942 23.9266 18.5671C24.8745 18.2402 25.3484 17.4614 25.3484 16.2305C25.3484 15.3091 25.0172 14.6328 24.3547 14.2018C23.692 13.7708 22.9559 13.5552 22.1466 13.5552C21.2876 13.5552 20.2868 13.7098 19.1441 14.019C18.0016 14.3284 16.6731 14.7354 15.1587 15.2402L14.6588 13.4037C16.1875 12.9149 17.5552 12.5015 18.7619 12.1634C19.9688 11.8252 21.0794 11.6562 22.0938 11.6562C23.4431 11.6562 24.6354 12.0552 25.6706 12.8534C26.7058 13.6515 27.2234 14.7772 27.2234 16.2305C27.2234 16.7835 27.1253 17.3064 26.9291 17.7993C26.7328 18.292 26.4568 18.7467 26.1009 19.1634C26.9568 19.2275 27.6643 19.5929 28.2234 20.2596C28.7828 20.9263 29.0625 21.6794 29.0625 22.519C29.0625 23.4646 28.7311 24.274 28.0684 24.9471C27.4057 25.62 26.5912 25.9565 25.625 25.9565C25.1073 25.9565 24.6093 25.8408 24.1309 25.6093C23.6526 25.3776 23.2668 25.0471 22.9734 24.6177C22.6289 25.5088 22.0824 26.2263 21.3341 26.7702C20.5857 27.3144 19.722 27.5865 18.7428 27.5865Z" fill="#8A38F5"/>
</g>
</svg>
